# xmcd
#
# Track frame offsets:
#	150
#	16760
#	34915
#	53907
#	74798
#	92494
#	105747
#	122189
#	138784
#	154644
#	169622
#	184801
#	201375
#	216077
#	233875
#	248016
#
# Disc length: 3521 seconds
#
# Revision: 1
# Processed by: cddbd v1.5.2PL0 Copyright (c) Steve Scherf et al.
# Submitted via: audiograbber 1.83.01
#
DISCID=dd0dbf10
DTITLE=ChartBusters - 5143-01
DYEAR=1900
DGENRE=
TTITLE0=Atkins, Rodney - Chasin' Girls
TTITLE1=Bryan, Luke - Someone Else Calling You Baby
TTITLE2=Swift, Taylor - Fearless
TTITLE3=Paisley, Brad - Water
TTITLE4=Zac Brown Band and Jackson, Allen - As She's Walking Away
TTITLE5=Church, Eric - Hell On The Heart
TTITLE6=Armiger, Katie - Leaving Home
TTITLE7=LoCash Cowboys - Here Comes The Summer
TTITLE8=Covington, Bucky - A Father's Love (The Only Way He Knew How)
TTITLE9=Nichols, Joe - The Shape I'm In
TTITLE10=Bundy, Laura Bell - Drop On By
TTITLE11=Bentley, Dierks - Draw Me A Map
TTITLE12=Thompson Square - Are You Gonna Kiss Me Or Not
TTITLE13=West, Emily and Urban, Keith - Blue sky
TTITLE14=Houser, Randy - I'm All About It
TTITLE15=Montgomery Gentry - While You're Still Young
EXTD=
EXTT0=
EXTT1=
EXTT2=
EXTT3=
EXTT4=
EXTT5=
EXTT6=
EXTT7=
EXTT8=
EXTT9=
EXTT10=
EXTT11=
EXTT12=
EXTT13=
EXTT14=
EXTT15=
PLAYORDER=
